<?xml version="1.0" encoding="UTF-8" ?>
<!DOCTYPE svg PUBLIC "-//W3C//DTD SVG 1.1//EN" "http://www.w3.org/Graphics/SVG/1.1/DTD/svg11.dtd">
<svg width="140pt" height="63pt" viewBox="0 0 140 63" version="1.1" xmlns="http://www.w3.org/2000/svg">
<g id="#2196f3fe">
<path fill="#2196f3" opacity="1.00" d=" M 65.70 6.05 C 68.52 6.01 71.35 6.03 74.18 6.15 C 74.19 6.98 74.21 8.63 74.23 9.46 C 71.44 9.71 68.64 9.69 65.86 9.52 C 65.82 8.65 65.74 6.92 65.70 6.05 Z" />
<path fill="#2196f3" opacity="1.00" d=" M 50.44 7.88 C 53.05 7.52 55.65 7.11 58.26 6.70 C 58.37 7.61 58.59 9.41 58.70 10.31 C 56.15 10.69 53.61 11.15 51.08 11.63 C 50.92 10.70 50.60 8.82 50.44 7.88 Z" />
<path fill="#2196f3" opacity="1.00" d=" M 81.27 10.30 C 81.40 9.09 81.53 7.88 81.66 6.67 C 84.26 7.11 86.87 7.52 89.49 7.89 C 89.33 8.82 88.99 10.68 88.83 11.61 C 86.31 11.16 83.79 10.70 81.27 10.30 Z" />
<path fill="#2196f3" opacity="1.00" d=" M 35.51 12.75 C 38.03 11.69 40.58 10.73 43.18 9.89 C 43.49 11.07 43.78 12.26 44.05 13.45 C 41.69 14.34 39.33 15.22 36.94 16.03 C 36.46 14.94 35.98 13.85 35.51 12.75 Z" />
<path fill="#2196f3" opacity="1.00" d=" M 95.90 13.53 C 96.22 12.32 96.52 11.10 96.83 9.89 C 99.39 10.78 101.93 11.73 104.45 12.74 C 103.97 13.83 103.50 14.92 103.03 16.00 C 100.64 15.22 98.27 14.37 95.90 13.53 Z" />
<path fill="#2196f3" opacity="1.00" d=" M 111.27 16.05 C 113.63 17.35 116.00 18.67 117.98 20.52 C 117.26 21.43 116.56 22.34 115.87 23.26 C 113.71 21.86 111.53 20.49 109.34 19.14 C 109.97 18.11 110.62 17.08 111.27 16.05 Z" />
<path fill="#2196f3" opacity="1.00" d=" M 21.95 20.19 C 24.19 18.68 26.46 17.19 28.94 16.11 C 29.34 16.89 30.13 18.45 30.53 19.23 C 28.32 20.52 26.14 21.88 24.00 23.30 C 23.31 22.27 22.63 21.23 21.95 20.19 Z" />
<path fill="#2196f3" opacity="1.00" d=" M 10.28 31.05 C 12.13 28.96 14.06 26.95 16.04 24.99 C 16.85 25.94 17.67 26.88 18.49 27.81 C 16.72 29.49 15.05 31.26 13.52 33.15 C 12.44 32.45 11.35 31.76 10.28 31.05 Z" />
<path fill="#2196f3" opacity="1.00" d=" M 121.45 27.73 C 122.28 26.81 123.11 25.89 123.96 24.98 C 125.90 26.92 127.78 28.93 129.57 31.02 C 128.54 31.75 127.50 32.47 126.47 33.19 C 124.91 31.27 123.23 29.45 121.45 27.73 Z" />
<path fill="#2196f3" opacity="1.00" d=" M 6.07 37.32 C 7.15 37.90 8.23 38.48 9.31 39.06 C 8.20 41.32 7.20 43.62 6.29 45.97 C 5.18 45.66 4.07 45.35 2.96 45.05 C 3.54 42.31 4.79 39.79 6.07 37.32 Z" />
<path fill="#2196f3" opacity="1.00" d=" M 130.60 39.02 C 131.70 38.47 132.79 37.91 133.89 37.36 C 135.13 39.79 136.31 42.27 137.01 44.91 C 135.89 45.27 134.78 45.64 133.65 45.99 C 132.74 43.62 131.71 41.30 130.60 39.02 Z" />
<path fill="#2196f3" opacity="1.00" d=" M 1.04 52.54 C 2.26 52.64 3.47 52.75 4.69 52.84 C 4.64 54.20 4.59 55.56 4.54 56.93 C 3.37 56.94 2.21 56.96 1.04 56.99 C 1.04 55.51 1.04 54.02 1.04 52.54 Z" />
<path fill="#2196f3" opacity="1.00" d=" M 135.21 52.88 C 136.39 52.74 137.58 52.60 138.77 52.46 C 138.87 53.95 138.95 55.45 139.03 56.95 C 137.84 56.95 136.65 56.96 135.46 56.98 C 135.37 55.61 135.29 54.24 135.21 52.88 Z" />
</g>
</svg>
