<?xml version="1.0" encoding="UTF-8" ?>
<!DOCTYPE svg PUBLIC "-//W3C//DTD SVG 1.1//EN" "http://www.w3.org/Graphics/SVG/1.1/DTD/svg11.dtd">
<svg width="140pt" height="63pt" viewBox="0 0 140 63" version="1.1" xmlns="http://www.w3.org/2000/svg">
<g id="#2196f3fe">
<path fill="#2196f3" opacity="1.00" d=" M 0.97 6.05 C 2.16 6.04 3.35 6.03 4.54 6.02 C 4.62 7.38 4.70 8.75 4.80 10.12 C 3.61 10.26 2.42 10.40 1.23 10.54 C 1.13 9.05 1.04 7.55 0.97 6.05 Z" />
<path fill="#2196f3" opacity="1.00" d=" M 135.47 6.07 C 136.63 6.05 137.80 6.03 138.96 6.02 C 138.96 7.50 138.96 8.98 138.96 10.46 C 137.74 10.37 136.52 10.27 135.31 10.16 C 135.36 8.79 135.41 7.43 135.47 6.07 Z" />
<path fill="#2196f3" opacity="1.00" d=" M 3.04 17.99 C 4.14 17.67 5.24 17.35 6.35 17.04 C 7.27 19.39 8.29 21.71 9.39 23.98 C 8.30 24.53 7.21 25.08 6.12 25.64 C 4.86 23.19 3.62 20.70 3.04 17.99 Z" />
<path fill="#2196f3" opacity="1.00" d=" M 133.71 17.04 C 134.82 17.33 135.93 17.63 137.04 17.95 C 136.46 20.69 135.21 23.21 133.92 25.68 C 132.84 25.10 131.77 24.52 130.69 23.94 C 131.80 21.68 132.79 19.38 133.71 17.04 Z" />
<path fill="#2196f3" opacity="1.00" d=" M 10.44 32.00 C 11.51 31.51 12.34 29.85 13.63 30.17 C 15.35 31.79 16.86 33.62 18.54 35.28 C 17.72 36.20 16.88 37.12 16.04 38.02 C 14.10 36.08 12.23 34.07 10.44 32.00 Z" />
<path fill="#2196f3" opacity="1.00" d=" M 126.43 29.87 C 127.54 30.54 128.63 31.24 129.72 31.95 C 127.88 34.03 125.94 36.04 123.96 38.00 C 123.14 37.07 122.32 36.13 121.51 35.19 C 123.27 33.53 124.93 31.77 126.43 29.87 Z" />
<path fill="#2196f3" opacity="1.00" d=" M 24.06 39.69 C 26.24 41.10 28.44 42.50 30.66 43.85 C 30.02 44.90 29.38 45.93 28.72 46.96 C 26.46 45.67 24.25 44.30 22.07 42.88 C 22.72 41.81 23.38 40.74 24.06 39.69 Z" />
<path fill="#2196f3" opacity="1.00" d=" M 109.47 43.77 C 111.68 42.48 113.86 41.12 115.99 39.70 C 116.69 40.73 117.38 41.77 118.06 42.81 C 115.81 44.32 113.54 45.81 111.05 46.89 C 110.66 46.11 109.87 44.55 109.47 43.77 Z" />
<path fill="#2196f3" opacity="1.00" d=" M 36.96 46.99 C 39.37 47.77 41.75 48.64 44.12 49.51 C 43.81 50.71 43.48 51.91 43.15 53.12 C 40.60 52.21 38.06 51.27 35.55 50.26 C 36.04 49.18 36.51 48.09 36.96 46.99 Z" />
<path fill="#2196f3" opacity="1.00" d=" M 95.73 49.71 C 98.15 48.72 100.59 47.80 103.06 46.97 C 103.53 48.06 104.01 49.15 104.49 50.24 C 102.01 51.30 99.48 52.25 96.90 53.08 C 96.51 51.95 96.12 50.83 95.73 49.71 Z" />
<path fill="#2196f3" opacity="1.00" d=" M 51.18 51.39 C 53.69 51.84 56.20 52.31 58.73 52.70 C 58.61 53.91 58.48 55.12 58.35 56.33 C 55.74 55.90 53.13 55.47 50.52 55.11 C 50.68 54.18 51.01 52.32 51.18 51.39 Z" />
<path fill="#2196f3" opacity="1.00" d=" M 81.29 52.69 C 83.84 52.32 86.37 51.84 88.90 51.35 C 89.06 52.30 89.39 54.18 89.56 55.12 C 86.95 55.48 84.34 55.89 81.74 56.29 C 81.63 55.39 81.41 53.59 81.29 52.69 Z" />
<path fill="#2196f3" opacity="1.00" d=" M 65.80 53.50 C 68.58 53.32 71.36 53.31 74.13 53.45 C 74.19 54.62 74.25 55.78 74.31 56.95 C 71.48 56.99 68.64 56.98 65.81 56.85 C 65.81 56.01 65.81 54.34 65.80 53.50 Z" />
</g>
</svg>
